<svg width="295" height="55" viewBox="0 0 295 55" fill="none" xmlns="http://www.w3.org/2000/svg">
<path d="M162.574 18.2036H169.776L176.221 33.1108L177.901 37.2891L179.581 33.1108L186.027 18.2036H193.228L181.491 43H174.311L162.574 18.2036ZM196.411 35.3994C198.091 36.4072 199.939 37.1491 201.954 37.625C203.97 38.1009 206.034 38.3389 208.148 38.3389C209.576 38.3389 210.766 38.2409 211.717 38.0449C212.669 37.849 213.432 37.597 214.006 37.2891C214.58 36.9811 214.986 36.6312 215.224 36.2393C215.462 35.8473 215.581 35.4484 215.581 35.0425C215.581 34.4546 215.322 33.9507 214.804 33.5308C214.3 33.1108 213.46 32.9009 212.284 32.9009C211.738 32.9009 211.15 32.9359 210.521 33.0059C209.891 33.0758 209.226 33.1528 208.526 33.2368C207.84 33.3068 207.119 33.3768 206.363 33.4468C205.622 33.5168 204.866 33.5518 204.096 33.5518C202.416 33.5518 200.981 33.3698 199.792 33.0059C198.616 32.6419 197.657 32.145 196.915 31.5151C196.173 30.8853 195.634 30.1434 195.298 29.2896C194.962 28.4217 194.795 27.4909 194.795 26.4971C194.795 25.2373 195.088 24.0755 195.676 23.0117C196.264 21.9479 197.104 21.0311 198.196 20.2612C199.288 19.4774 200.603 18.8685 202.143 18.4346C203.697 18.0007 205.426 17.7837 207.329 17.7837C208.323 17.7837 209.359 17.8467 210.437 17.9727C211.528 18.0846 212.599 18.2386 213.649 18.4346C214.699 18.6305 215.707 18.8615 216.672 19.1274C217.638 19.3794 218.492 19.6523 219.234 19.9463L217.281 24.7754C215.7 24.1875 214.118 23.7256 212.536 23.3896C210.969 23.0397 209.352 22.8647 207.686 22.8647C206.524 22.8647 205.538 22.9557 204.726 23.1377C203.928 23.3057 203.277 23.5366 202.773 23.8306C202.269 24.1105 201.898 24.4395 201.66 24.8174C201.436 25.1813 201.324 25.5662 201.324 25.9722C201.324 26.2661 201.38 26.5321 201.492 26.77C201.618 27.008 201.814 27.2179 202.08 27.3999C202.36 27.5679 202.717 27.7008 203.151 27.7988C203.599 27.8828 204.145 27.9248 204.789 27.9248C205.377 27.9248 205.999 27.8898 206.657 27.8198C207.315 27.7498 208.001 27.6799 208.715 27.6099C209.429 27.5259 210.164 27.4489 210.92 27.3789C211.689 27.3089 212.473 27.2739 213.271 27.2739C214.755 27.2739 216.05 27.4489 217.155 27.7988C218.275 28.1488 219.199 28.6387 219.927 29.2686C220.655 29.8984 221.201 30.6403 221.565 31.4941C221.928 32.348 222.11 33.2788 222.11 34.2866C222.11 35.5884 221.809 36.7992 221.208 37.9189C220.606 39.0387 219.71 40.0116 218.52 40.8374C217.33 41.6493 215.847 42.2861 214.069 42.748C212.305 43.21 210.262 43.4409 207.938 43.4409C206.51 43.4409 205.132 43.3499 203.802 43.168C202.472 43 201.205 42.769 200.002 42.4751C198.798 42.1672 197.664 41.8102 196.6 41.4043C195.55 40.9984 194.592 40.5645 193.724 40.1025L196.411 35.3994ZM225.587 8.16748H231.802V28.7437L243.392 18.2246H252.903L239.949 29.8145L253.722 43H244.4L235.183 34.0767L231.802 37.1001V43H225.587V8.16748ZM258.627 46.1074C259.271 46.5273 259.971 46.8983 260.726 47.2202C261.482 47.5422 262.266 47.8081 263.078 48.0181C263.904 48.228 264.744 48.382 265.598 48.48C266.451 48.592 267.298 48.6479 268.138 48.6479C270.994 48.6479 273.191 48.0321 274.731 46.8003C276.285 45.5825 277.061 43.7489 277.061 41.2993V40.4595C276.516 40.8374 275.9 41.1873 275.214 41.5093C274.542 41.8172 273.814 42.0832 273.03 42.3071C272.26 42.5311 271.441 42.7061 270.574 42.832C269.72 42.944 268.852 43 267.97 43C266.08 43 264.387 42.7271 262.889 42.1812C261.405 41.6213 260.146 40.8094 259.11 39.7456C258.088 38.6678 257.304 37.3451 256.758 35.7773C256.212 34.2096 255.939 32.418 255.939 30.4023V18.2246H262.133V28.6807C262.133 31.6761 262.7 33.8877 263.834 35.3154C264.982 36.7292 266.787 37.436 269.251 37.436C270.987 37.436 272.519 37.1351 273.849 36.5332C275.193 35.9173 276.264 35.1335 277.061 34.1816V18.2246H283.276V40.1655C283.276 42.5311 282.94 44.5817 282.268 46.3174C281.597 48.0671 280.617 49.5158 279.329 50.6636C278.055 51.8114 276.488 52.6652 274.626 53.2251C272.764 53.799 270.651 54.0859 268.285 54.0859C265.975 54.0859 263.82 53.841 261.818 53.3511C259.817 52.8612 257.983 52.1963 256.317 51.3564L258.627 46.1074Z" fill="black"/>
<path d="M6.22353 33.2368C7.41331 33.9087 8.61709 34.5176 9.83486 35.0635C11.0666 35.5954 12.3404 36.0503 13.6562 36.4282C14.9719 36.7922 16.3506 37.0721 17.7924 37.2681C19.2481 37.464 20.7948 37.562 22.4325 37.562C24.4062 37.562 26.0858 37.436 27.4716 37.1841C28.8573 36.9181 29.9841 36.5612 30.852 36.1133C31.7338 35.6514 32.3707 35.1055 32.7626 34.4756C33.1685 33.8457 33.3715 33.1598 33.3715 32.418C33.3715 31.2282 32.8746 30.2904 31.8808 29.6045C30.8869 28.9046 29.3542 28.5547 27.2826 28.5547C26.3728 28.5547 25.414 28.6177 24.4062 28.7437C23.3983 28.8556 22.3765 28.9816 21.3407 29.1216C20.3189 29.2616 19.3041 29.3945 18.2963 29.5205C17.3025 29.6325 16.3646 29.6885 15.4828 29.6885C14.0131 29.6885 12.5993 29.4995 11.2416 29.1216C9.89785 28.7437 8.70107 28.1768 7.65127 27.4209C6.61546 26.665 5.78961 25.7202 5.17373 24.5864C4.55784 23.4526 4.2499 22.1299 4.2499 20.6182C4.2499 19.7223 4.36888 18.8335 4.60683 17.9517C4.85879 17.0698 5.25071 16.23 5.78262 15.4321C6.32851 14.6203 7.02838 13.8714 7.88223 13.1855C8.73607 12.4857 9.76487 11.8838 10.9687 11.3799C12.1864 10.876 13.5862 10.484 15.1679 10.2041C16.7636 9.91016 18.5762 9.76318 20.6059 9.76318C22.0756 9.76318 23.5523 9.84717 25.036 10.0151C26.5198 10.1691 27.9615 10.3931 29.3612 10.687C30.775 10.981 32.1327 11.3379 33.4345 11.7578C34.7362 12.1637 35.947 12.6187 37.0668 13.1226L34.1483 18.4976C33.2245 18.0916 32.2307 17.7207 31.1669 17.3848C30.1031 17.0348 28.9903 16.7339 27.8285 16.4819C26.6667 16.23 25.463 16.034 24.2172 15.894C22.9854 15.7401 21.7256 15.6631 20.4379 15.6631C18.6042 15.6631 17.0925 15.7961 15.9027 16.062C14.727 16.328 13.7891 16.6709 13.0893 17.0908C12.3894 17.4967 11.8995 17.9587 11.6195 18.4766C11.3536 18.9805 11.2206 19.4844 11.2206 19.9883C11.2206 20.9681 11.6615 21.7729 12.5434 22.4028C13.4252 23.0187 14.7689 23.3267 16.5746 23.3267C17.3025 23.3267 18.1353 23.2777 19.0731 23.1797C20.025 23.0677 21.0188 22.9487 22.0546 22.8228C23.1044 22.6968 24.1682 22.5848 25.246 22.4868C26.3378 22.3748 27.3946 22.3188 28.4164 22.3188C30.348 22.3188 32.0557 22.5358 33.5395 22.9697C35.0372 23.4036 36.2899 24.0265 37.2978 24.8384C38.3056 25.6362 39.0684 26.609 39.5863 27.7568C40.1042 28.8906 40.3632 30.1644 40.3632 31.5781C40.3632 33.4678 39.9223 35.1545 39.0404 36.6382C38.1726 38.1079 36.9268 39.3537 35.3031 40.3755C33.6934 41.3833 31.7478 42.1532 29.4662 42.6851C27.1846 43.203 24.6441 43.4619 21.8446 43.4619C19.997 43.4619 18.1913 43.3429 16.4276 43.105C14.664 42.881 12.9703 42.5591 11.3466 42.1392C9.73688 41.7052 8.19717 41.1943 6.72744 40.6064C5.27171 40.0046 3.92096 39.3467 2.67519 38.6328L6.22353 33.2368ZM48.5013 22.8857H42.5174V18.2246H48.5013V10.519H54.7161V18.2246H60.7V22.8857H54.7161V43H48.5013V22.8857ZM62.8962 35.1895C62.8962 33.9997 63.1551 32.9149 63.673 31.9351C64.1909 30.9552 64.9678 30.1154 66.0036 29.4155C67.0394 28.7017 68.3272 28.1558 69.8669 27.7778C71.4206 27.3859 73.2263 27.1899 75.2839 27.1899C76.8096 27.1899 78.4123 27.3019 80.092 27.5259C81.7857 27.7498 83.5284 28.0928 85.32 28.5547C85.25 27.7708 85.0121 27.05 84.6062 26.3921C84.2002 25.7202 83.6333 25.1463 82.9055 24.6704C82.1916 24.1805 81.3238 23.8026 80.302 23.5366C79.2941 23.2707 78.1464 23.1377 76.8586 23.1377C76.1587 23.1377 75.3889 23.1797 74.549 23.2637C73.7092 23.3477 72.8413 23.4736 71.9455 23.6416C71.0497 23.8096 70.1608 24.0195 69.279 24.2715C68.4112 24.5234 67.5993 24.8244 66.8435 25.1743L64.9538 20.0723C65.8916 19.7363 66.8924 19.4284 67.9562 19.1484C69.034 18.8685 70.1328 18.6305 71.2526 18.4346C72.3724 18.2246 73.4922 18.0636 74.612 17.9517C75.7318 17.8397 76.8166 17.7837 77.8664 17.7837C82.4995 17.7837 85.9429 18.9665 88.1965 21.332C90.4501 23.6976 91.5769 27.3229 91.5769 32.208V43H85.362V40.6694C84.7181 41.0474 84.0113 41.4043 83.2414 41.7402C82.4855 42.0762 81.6597 42.3701 80.7639 42.6221C79.868 42.874 78.9022 43.07 77.8664 43.21C76.8446 43.3639 75.7598 43.4409 74.612 43.4409C72.6804 43.4409 70.9797 43.231 69.51 42.811C68.0542 42.3911 66.8365 41.8102 65.8566 41.0684C64.8768 40.3265 64.135 39.4587 63.6311 38.4648C63.1411 37.457 62.8962 36.3652 62.8962 35.1895ZM69.447 34.9795C69.447 35.3854 69.552 35.7773 69.7619 36.1553C69.9719 36.5192 70.3078 36.8481 70.7697 37.1421C71.2316 37.422 71.8195 37.653 72.5334 37.835C73.2613 38.0029 74.1361 38.0869 75.1579 38.0869C76.2497 38.0869 77.3065 37.9889 78.3283 37.793C79.3501 37.597 80.302 37.3381 81.1838 37.0161C82.0656 36.6942 82.8635 36.3232 83.5773 35.9033C84.2912 35.4834 84.8861 35.0495 85.362 34.6016V33.5098C84.4102 33.2438 83.4654 33.0199 82.5275 32.8379C81.6037 32.6559 80.7149 32.516 79.861 32.418C79.0212 32.306 78.2233 32.229 77.4675 32.187C76.7256 32.145 76.0747 32.124 75.5148 32.124C74.3531 32.124 73.3872 32.201 72.6174 32.355C71.8475 32.509 71.2246 32.7189 70.7487 32.9849C70.2728 33.2368 69.9369 33.5378 69.7409 33.8877C69.545 34.2376 69.447 34.6016 69.447 34.9795ZM97.6573 18.2246H103.872V20.3242C105.524 19.3864 107.099 18.7285 108.596 18.3506C110.108 17.9727 111.585 17.7837 113.026 17.7837C114.916 17.7837 116.666 18.0636 118.275 18.6235C119.885 19.1694 121.278 19.9883 122.454 21.0801C123.629 22.1719 124.546 23.5366 125.204 25.1743C125.876 26.798 126.212 28.6807 126.212 30.8223V43H120.018V31.8301C120.018 30.4723 119.822 29.2616 119.43 28.1978C119.052 27.12 118.499 26.2171 117.772 25.4893C117.058 24.7474 116.183 24.1875 115.147 23.8096C114.125 23.4176 112.977 23.2217 111.704 23.2217C111.032 23.2217 110.339 23.2917 109.625 23.4316C108.925 23.5716 108.232 23.7746 107.546 24.0405C106.875 24.2925 106.224 24.6144 105.594 25.0063C104.964 25.3843 104.39 25.8182 103.872 26.3081V43H97.6573V18.2246Z" fill="black"/>
<path d="M168.502 30.25C168.502 41.3252 158.636 50.6667 145.999 50.6667C133.362 50.6667 123.496 41.3252 123.496 30.25C123.496 19.1748 133.362 9.83333 145.999 9.83333C158.636 9.83333 168.502 19.1748 168.502 30.25Z" fill="white" stroke="#4E4AFF" stroke-width="5"/>
<path d="M132.998 38.5C144.699 44.6111 147.624 44.6111 159 38.5" stroke="#4E4AFF" stroke-width="5"/>
<path d="M129.997 25.6667C134.62 17.3658 140.591 22.208 142.999 25.6667" stroke="#4E4AFF" stroke-width="5"/>
<path d="M162.001 25.6667C157.022 17.3658 151.592 22.208 148.999 25.6667" stroke="#4E4AFF" stroke-width="5"/>
</svg>
